<svg width="64" height="64" fill="none" xmlns="http://www.w3.org/2000/svg"><path d="M64 54.635C64 59.806 59.828 64 54.682 64H9.318C4.172 64 0 59.807 0 54.635V9.364C0 4.193 4.172 0 9.318 0h45.364C59.828 0 64 4.193 64 9.365v45.27z" fill="#FAAB62"/><path d="M63.671 54.402c0 5.12-4.129 9.27-9.222 9.27H9.551c-5.094 0-9.222-4.15-9.222-9.27V9.598c0-5.12 4.129-9.27 9.222-9.27h44.898c5.093 0 9.222 4.15 9.222 9.27v44.804z" fill="#F7931E"/><path d="M31.964 9.565c-6.343 0-11.484 5.168-11.484 11.544 0 6.375 5.141 11.544 11.484 11.544S43.45 27.484 43.45 21.109c0-6.376-5.142-11.544-11.485-11.544zm0 16.316c-2.622 0-4.747-2.137-4.747-4.772 0-2.636 2.125-4.772 4.747-4.772s4.748 2.136 4.748 4.772c0 2.635-2.126 4.772-4.748 4.772zm4.055 15.957c4.598-.941 7.353-3.13 7.499-3.247A3.15 3.15 0 0044 34.178a3.112 3.112 0 00-4.39-.485c-.028.023-2.966 2.289-7.802 2.292-4.835-.003-7.835-2.269-7.864-2.292a3.112 3.112 0 00-4.39.485 3.15 3.15 0 00.483 4.413c.148.119 3.017 2.364 7.743 3.283l-6.587 6.92a3.15 3.15 0 00.08 4.439 3.11 3.11 0 004.416-.081l6.12-6.553 6.737 6.595a3.111 3.111 0 004.417-.004 3.15 3.15 0 00-.004-4.438l-6.94-6.914z" fill="#fff"/></svg>