<svg width="100" height="96" viewBox="0 0 100 96" fill="none" xmlns="http://www.w3.org/2000/svg">
<g filter="url(#filter0_d_4_18)">
<path d="M8.28588 55.4487C3.9207 52.0654 3.25987 45.8929 6.80989 41.6622L38.5499 3.83591C42.0999 -0.394835 48.5165 -1.0818 52.8816 2.30154L91.9099 32.5513C96.2751 35.9347 96.9359 42.1071 93.3859 46.3379L61.6459 84.1642C58.0959 88.3949 51.6793 89.0819 47.3142 85.6985L8.28588 55.4487Z" fill="#E0E3FA"/>
<path d="M15.1452 18.8703C14.9871 13.3497 19.3362 8.87437 24.859 8.87437H73.3243C78.8471 8.87437 83.4524 13.3497 83.6104 18.8703L85.0494 69.13C85.2075 74.6506 80.8585 79.1259 75.3356 79.1259H26.8704C21.3475 79.1259 16.7422 74.6506 16.5842 69.13L15.1452 18.8703Z" fill="white"/>
<path fill-rule="evenodd" clip-rule="evenodd" d="M50.3305 27.1338C46.9495 27.1338 43.6947 28.5294 41.2856 31.0338C38.8746 33.5402 37.5103 36.9515 37.5103 40.5202C37.5103 45.531 40.7693 50.7557 44.3104 54.897C46.0493 56.9306 47.7925 58.6299 49.1023 59.8213C49.577 60.2532 49.9935 60.617 50.3305 60.9046C50.6674 60.617 51.0839 60.2532 51.5587 59.8213C52.8684 58.6299 54.6116 56.9306 56.3505 54.897C59.8916 50.7557 63.1506 45.531 63.1506 40.5202C63.1506 36.9515 61.7863 33.5402 59.3753 31.0338C56.9662 28.5294 53.7114 27.1338 50.3305 27.1338ZM50.3305 62.8499C49.4082 64.0328 49.4078 64.0326 49.4074 64.0323L49.4064 64.0315L49.4033 64.029L49.3932 64.0212L49.3579 63.9933C49.3277 63.9693 49.2843 63.9347 49.2286 63.8899C49.1172 63.8001 48.9565 63.6691 48.7535 63.4995C48.3477 63.1606 47.7722 62.6669 47.0836 62.0406C45.7084 60.7896 43.8715 58.9999 42.0303 56.8467C38.4114 52.6144 34.5103 46.6742 34.5103 40.5202C34.5103 36.1926 36.1635 32.0311 39.1236 28.954C42.0855 25.8749 46.1155 24.1338 50.3305 24.1338C54.5454 24.1338 58.5754 25.8749 61.5373 28.954C64.4974 32.0311 66.1506 36.1926 66.1506 40.5202C66.1506 46.6742 62.2495 52.6144 58.6306 56.8467C56.7894 58.9999 54.9525 60.7896 53.5773 62.0406C52.8887 62.6669 52.3132 63.1606 51.9074 63.4995C51.7045 63.6691 51.5438 63.8001 51.4323 63.8899C51.3766 63.9347 51.3332 63.9693 51.303 63.9933L51.2677 64.0212L51.2576 64.029L51.2545 64.0315L51.2535 64.0323C51.2531 64.0326 51.2528 64.0328 50.3305 62.8499ZM50.3305 62.8499L51.2535 64.0323C50.7113 64.455 49.9496 64.455 49.4074 64.0323L50.3305 62.8499Z" fill="#689FF3"/>
<path fill-rule="evenodd" clip-rule="evenodd" d="M50.3305 36.4378C48.2474 36.4378 46.4604 38.2102 46.4604 40.5202C46.4604 42.8302 48.2474 44.6026 50.3305 44.6026C52.4135 44.6026 54.2005 42.8302 54.2005 40.5202C54.2005 38.2102 52.4135 36.4378 50.3305 36.4378ZM43.4604 40.5202C43.4604 36.6641 46.4819 33.4378 50.3305 33.4378C54.179 33.4378 57.2005 36.6641 57.2005 40.5202C57.2005 44.3764 54.179 47.6026 50.3305 47.6026C46.4819 47.6026 43.4604 44.3764 43.4604 40.5202Z" fill="#689FF3"/>
</g>
<defs>
<filter id="filter0_d_4_18" x="0.525757" y="0.152893" width="99.1443" height="95.6943" filterUnits="userSpaceOnUse" color-interpolation-filters="sRGB">
<feFlood flood-opacity="0" result="BackgroundImageFix"/>
<feColorMatrix in="SourceAlpha" type="matrix" values="0 0 0 0 0 0 0 0 0 0 0 0 0 0 0 0 0 0 127 0" result="hardAlpha"/>
<feOffset dy="4"/>
<feGaussianBlur stdDeviation="2"/>
<feComposite in2="hardAlpha" operator="out"/>
<feColorMatrix type="matrix" values="0 0 0 0 0 0 0 0 0 0 0 0 0 0 0 0 0 0 0.25 0"/>
<feBlend mode="normal" in2="BackgroundImageFix" result="effect1_dropShadow_4_18"/>
<feBlend mode="normal" in="SourceGraphic" in2="effect1_dropShadow_4_18" result="shape"/>
</filter>
</defs>
</svg>
