<svg width="64" height="64" viewBox="0 0 64 64" fill="none" xmlns="http://www.w3.org/2000/svg">
<path d="M64 54.6345C64 59.8071 59.8282 64 54.6823 64H9.31771C4.17163 64 0 59.8071 0 54.6345V9.36549C0 4.19302 4.17163 0 9.31771 0H54.6823C59.8284 0 64 4.19302 64 9.36549V54.6345Z" fill="#FAAB62"/>
<path d="M63.6713 54.4021C63.6713 59.5214 59.5424 63.6713 54.4492 63.6713H9.5506C4.45744 63.6713 0.328707 59.5214 0.328707 54.4021V9.59793C0.328707 4.47865 4.4576 0.328741 9.5506 0.328741H54.4492C59.5424 0.328741 63.6713 4.47881 63.6713 9.59793V54.4021Z" fill="#F7931E"/>
<path d="M31.9643 9.56505C25.6214 9.56505 20.4796 14.7334 20.4796 21.1087C20.4796 27.4841 25.6214 32.6528 31.9643 32.6528C38.3072 32.6528 43.4491 27.4841 43.4491 21.1087C43.4491 14.7334 38.3072 9.56505 31.9643 9.56505ZM31.9643 25.8809C29.3424 25.8809 27.2168 23.7442 27.2168 21.1088C27.2168 18.4734 29.3424 16.337 31.9643 16.337C34.5863 16.337 36.7119 18.4734 36.7119 21.1088C36.7119 23.7442 34.5863 25.8809 31.9643 25.8809Z" fill="white"/>
<path d="M36.0189 41.838C40.6167 40.8966 43.372 38.7081 43.5177 38.5906C44.8631 37.5061 45.0793 35.5307 44.0003 34.1782C42.9215 32.8259 40.9563 32.6087 39.6106 33.693C39.5821 33.7161 36.6435 35.982 31.8084 35.9853C26.9734 35.982 23.9726 33.7161 23.9442 33.693C22.5985 32.6087 20.6333 32.8259 19.5545 34.1782C18.4755 35.5307 18.6916 37.5061 20.037 38.5906C20.1848 38.7097 23.0537 40.9552 27.7804 41.8745L21.1929 48.7943C19.9958 50.0422 20.0318 52.0292 21.2733 53.2325C21.8793 53.8198 22.6603 54.1117 23.4406 54.1117C24.2588 54.1117 25.0761 53.7904 25.6888 53.1515L31.8085 46.599L38.5464 53.194C39.7672 54.4191 41.744 54.4171 42.9626 53.1905C44.1811 51.9638 44.1796 49.9765 42.9591 48.7517L36.0189 41.838Z" fill="white"/>
</svg>
