<svg width="64" height="64" viewBox="0 0 64 64" fill="none" xmlns="http://www.w3.org/2000/svg">
<path fill-rule="evenodd" clip-rule="evenodd" d="M9.86191 0H54.1381C59.5845 0 64 4.41536 64 9.86191V54.1381C64 59.5845 59.5845 64 54.1381 64H9.86191C4.41536 64 0 59.5845 0 54.1381V9.86191C0 4.41536 4.41536 0 9.86191 0Z" fill="#4C75A3"/>
<path fill-rule="evenodd" clip-rule="evenodd" d="M31.463 44.802H34.081C34.081 44.802 34.8716 44.7148 35.2758 44.2799C35.6474 43.8801 35.6355 43.1299 35.6355 43.1299C35.6355 43.1299 35.5843 39.6171 37.2144 39.0998C38.8219 38.59 40.8857 42.4948 43.073 43.9964C44.7272 45.1323 45.9841 44.8837 45.9841 44.8837L51.8334 44.802C51.8334 44.802 54.8931 44.6132 53.4422 42.2075C53.3234 42.011 52.597 40.4279 49.093 37.1755C45.4251 33.7713 45.9167 34.322 50.3347 28.4336C53.0253 24.8476 54.1008 22.6584 53.7647 21.7208C53.4445 20.8275 51.4654 21.0635 51.4654 21.0635L44.8797 21.1042C44.8797 21.1042 44.3911 21.0377 44.0293 21.2543C43.6753 21.466 43.4481 21.9608 43.4481 21.9608C43.4481 21.9608 42.4053 24.7356 41.0157 27.0958C38.0831 32.0753 36.9104 32.3389 36.431 32.0292C35.3158 31.3085 35.5945 29.1344 35.5945 27.5895C35.5945 22.7636 36.3264 20.7515 34.169 20.2306C33.4533 20.0579 32.9259 19.9436 31.095 19.9249C28.745 19.901 26.7565 19.9322 25.6303 20.4839C24.881 20.8508 24.303 21.6682 24.6552 21.7153C25.0906 21.7733 26.0762 21.9813 26.5987 22.6923C27.2738 23.6108 27.2502 25.6726 27.2502 25.6726C27.2502 25.6726 27.6381 31.3534 26.3445 32.0588C25.4569 32.5428 24.2391 31.5548 21.6246 27.037C20.2852 24.7229 19.2736 22.1647 19.2736 22.1647C19.2736 22.1647 19.0788 21.6867 18.7309 21.4309C18.3089 21.1209 17.7193 21.0226 17.7193 21.0226L11.4608 21.0635C11.4608 21.0635 10.5216 21.0897 10.1764 21.4983C9.86931 21.8619 10.1519 22.6132 10.1519 22.6132C10.1519 22.6132 15.0512 34.076 20.5992 39.8526C25.6869 45.1496 31.463 44.802 31.463 44.802Z" fill="white"/>
</svg>
