<svg width="100" height="96" fill="none" xmlns="http://www.w3.org/2000/svg"><g filter="url(#filter0_d_4_18)"><path d="M8.286 55.449C3.92 52.065 3.26 45.893 6.81 41.662L38.55 3.836c3.55-4.23 9.967-4.918 14.332-1.534l39.028 30.25c4.365 3.383 5.026 9.555 1.476 13.786l-31.74 37.826c-3.55 4.23-9.967 4.918-14.332 1.534L8.286 55.448z" fill="#E0E3FA"/><path d="M15.145 18.87a9.66 9.66 0 019.714-9.996h48.465c5.523 0 10.128 4.476 10.286 9.996l1.44 50.26a9.66 9.66 0 01-9.714 9.996H26.87c-5.523 0-10.128-4.475-10.286-9.996l-1.439-50.26z" fill="#fff"/><path fill-rule="evenodd" clip-rule="evenodd" d="M50.33 27.134c-3.38 0-6.635 1.395-9.044 3.9-2.411 2.506-3.776 5.918-3.776 9.486 0 5.011 3.26 10.236 6.8 14.377a55.745 55.745 0 006.02 6.008 55.76 55.76 0 006.02-6.008c3.542-4.141 6.8-9.366 6.8-14.377 0-3.569-1.364-6.98-3.775-9.486-2.409-2.505-5.664-3.9-9.044-3.9zm0 35.716a228.214 228.214 0 01-.923 1.182l-.004-.003-.01-.008-.035-.028a28.044 28.044 0 01-.604-.494 58.765 58.765 0 01-6.723-6.653c-3.62-4.232-7.52-10.172-7.52-16.326 0-4.327 1.652-8.489 4.613-11.566 2.962-3.08 6.991-4.82 11.206-4.82s8.245 1.74 11.207 4.82c2.96 3.077 4.614 7.239 4.614 11.566 0 6.154-3.901 12.094-7.52 16.327a58.765 58.765 0 01-6.724 6.652 33.99 33.99 0 01-.604.494l-.035.028-.01.008-.004.002v.001l-.923-1.182zm0 0l.924 1.182a1.502 1.502 0 01-1.847 0l.924-1.182z" fill="#689FF3"/><path fill-rule="evenodd" clip-rule="evenodd" d="M50.33 36.438c-2.083 0-3.87 1.772-3.87 4.082 0 2.31 1.787 4.083 3.87 4.083 2.084 0 3.87-1.773 3.87-4.083 0-2.31-1.787-4.082-3.87-4.082zm-6.87 4.082c0-3.856 3.022-7.082 6.87-7.082 3.849 0 6.87 3.226 6.87 7.082s-3.021 7.083-6.87 7.083c-3.848 0-6.87-3.227-6.87-7.083z" fill="#689FF3"/></g><defs><filter id="filter0_d_4_18" x=".526" y=".153" width="99.144" height="95.694" filterUnits="userSpaceOnUse" color-interpolation-filters="sRGB"><feFlood flood-opacity="0" result="BackgroundImageFix"/><feColorMatrix in="SourceAlpha" values="0 0 0 0 0 0 0 0 0 0 0 0 0 0 0 0 0 0 127 0" result="hardAlpha"/><feOffset dy="4"/><feGaussianBlur stdDeviation="2"/><feComposite in2="hardAlpha" operator="out"/><feColorMatrix values="0 0 0 0 0 0 0 0 0 0 0 0 0 0 0 0 0 0 0.25 0"/><feBlend in2="BackgroundImageFix" result="effect1_dropShadow_4_18"/><feBlend in="SourceGraphic" in2="effect1_dropShadow_4_18" result="shape"/></filter></defs></svg>