<svg width="64" height="64" fill="none" xmlns="http://www.w3.org/2000/svg"><path fill-rule="evenodd" clip-rule="evenodd" d="M9.862 0h44.276C59.585 0 64 4.415 64 9.862v44.276C64 59.585 59.584 64 54.138 64H9.862C4.415 64 0 59.584 0 54.138V9.862C0 4.415 4.415 0 9.862 0z" fill="#4C75A3"/><path fill-rule="evenodd" clip-rule="evenodd" d="M31.463 44.802h2.618s.79-.087 1.195-.522c.371-.4.36-1.15.36-1.15s-.052-3.513 1.578-4.03c1.608-.51 3.672 3.395 5.859 4.896 1.654 1.136 2.911.888 2.911.888l5.85-.082s3.06-.189 1.608-2.594c-.119-.197-.845-1.78-4.349-5.032-3.668-3.405-3.176-2.854 1.242-8.742 2.69-3.586 3.766-5.776 3.43-6.713-.32-.893-2.3-.657-2.3-.657l-6.585.04s-.489-.066-.85.15c-.355.212-.582.707-.582.707s-1.043 2.775-2.432 5.135c-2.933 4.98-4.106 5.243-4.585 4.933-1.115-.72-.837-2.895-.837-4.44 0-4.825.732-6.837-1.425-7.358-.716-.173-1.243-.287-3.074-.306-2.35-.024-4.338.007-5.465.559-.749.367-1.327 1.184-.975 1.231.436.058 1.421.266 1.944.977.675.919.651 2.98.651 2.98s.388 5.681-.905 6.387c-.888.484-2.106-.504-4.72-5.022-1.34-2.314-2.351-4.872-2.351-4.872s-.195-.478-.543-.734c-.422-.31-1.012-.408-1.012-.408l-6.258.04s-.94.027-1.285.435c-.307.364-.024 1.115-.024 1.115s4.9 11.463 10.447 17.24c5.088 5.297 10.864 4.949 10.864 4.949z" fill="#fff"/></svg>